Coordinates
version=1
nRows=16
nColumns=40
inDegrees=yes

Units are S.I. units (second, meters, Newtons, ...)
If the header above contains a line with 'inDegrees', this indicates whether rotational values are in degrees (yes) or radians (no).

endheader
time	pelvis_tilt	pelvis_list	pelvis_rotation	pelvis_tx	pelvis_ty	pelvis_tz	hip_flexion_r	hip_adduction_r	hip_rotation_r	knee_angle_r	knee_angle_r_beta	ankle_angle_r	subtalar_angle_r	mtp_angle_r	hip_flexion_l	hip_adduction_l	hip_rotation_l	knee_angle_l	knee_angle_l_beta	ankle_angle_l	subtalar_angle_l	mtp_angle_l	lumbar_extension	lumbar_bending	lumbar_rotation	arm_flex_r	arm_add_r	arm_rot_r	elbow_flex_r	pro_sup_r	wrist_flex_r	wrist_dev_r	arm_flex_l	arm_add_l	arm_rot_l	elbow_flex_l	pro_sup_l	wrist_flex_l	wrist_dev_l
      2.80000000	      5.78804216	     -3.17290519	      4.75249529	     -0.35718327	      0.78017444	     -1.06052761	     49.10036047	     -1.96270504	     -3.72983460	      1.92446099	      0.03358818	     -7.52343648	      0.00000000	      0.00000000	     46.65767508	      0.05093583	     -1.01521635	     95.28900784	      1.66310693	     31.36887519	      0.00000000	      0.00000000	    -26.47640888	     -2.90947609	      4.62134710	     89.96371437	     -3.24870957	      6.38083600	     47.43188003	     67.08086124	      0.00000000	      0.00000000	     89.97059764	      2.39986001	     17.87428401	     51.91750604	     62.15742373	      0.00000000	      0.00000000
      2.80500000	      5.79708447	     -3.15503563	      4.70111594	     -0.35727031	      0.77956330	     -1.06034616	     49.13509609	     -1.91979945	     -3.62799966	      1.85945903	      0.03245368	     -7.60338666	      0.00000000	      0.00000000	     46.70542310	     -0.03224452	     -1.12120313	     95.40522569	      1.66513531	     31.30015907	      0.00000000	      0.00000000	    -26.54652317	     -2.97581618	      4.72501348	     89.96375766	     -3.27704328	      6.36161114	     47.61982067	     65.41336943	      0.00000000	      0.00000000	     89.97071477	      2.51966718	     17.81880604	     52.05584735	     60.17114474	      0.00000000	      0.00000000
      2.81000000	      5.73359088	     -3.24271024	      4.75433943	     -0.35730301	      0.77880890	     -1.06035980	     49.27661844	     -1.88612933	     -3.64947063	      1.92774111	      0.03364543	     -7.40506099	      0.00000000	      0.00000000	     46.86784175	     -0.04595431	     -0.99144554	     95.55580089	      1.66776334	     31.48827317	      0.00000000	      0.00000000	    -26.51738657	     -2.87468788	      4.68013000	     89.96394364	     -3.23526561	      6.52935800	     47.71714242	     63.71579318	      0.00000000	      0.00000000	     89.97077285	      2.50702227	     17.80759929	     52.11633648	     58.37991637	      0.00000000	      0.00000000
      2.81500000	      5.63325868	     -3.22413087	      4.74959545	     -0.35728918	      0.77818969	     -1.06034570	     49.41489604	     -1.88927441	     -3.60775061	      1.89257496	      0.03303166	     -7.36986637	      0.00000000	      0.00000000	     47.03401169	     -0.05090762	     -1.05095579	     95.64848710	      1.66938102	     31.29576092	      0.00000000	      0.00000000	    -26.44579387	     -2.95135660	      4.70878224	     89.96402812	     -3.25355964	      4.85084213	     47.31526254	     78.70247071	      0.00000000	      0.00000000	     89.97081753	      2.62199678	     17.65225282	     51.92597143	     62.13999379	      0.00000000	      0.00000000
      2.82000000	      5.57882546	     -3.24560905	      4.74178816	     -0.35729928	      0.77745975	     -1.06029878	     49.52296644	     -1.85702788	     -3.60240652	      1.87278143	      0.03268620	     -7.33915262	      0.00000000	      0.00000000	     47.16317774	     -0.05178449	     -1.01935698	     95.75710569	      1.67127678	     31.37004164	      0.00000000	      0.00000000	    -26.42871853	     -2.96319809	      4.74880799	     89.96418140	     -3.31085614	      4.96883482	     47.39124302	     77.91621550	      0.00000000	      0.00000000	     89.97084847	      2.71271722	     17.63024324	     51.92830778	     60.82995499	      0.00000000	      0.00000000
      2.82500000	      5.58312504	     -3.25019642	      4.75872885	     -0.35736404	      0.77681458	     -1.06031674	     49.57012836	     -1.84743574	     -3.61539502	      1.84422092	      0.03218773	     -7.38174555	      0.00000000	      0.00000000	     47.22297570	     -0.05781012	     -1.03385809	     95.87879343	      1.67340063	     31.45291294	      0.00000000	      0.00000000	    -26.47793789	     -2.94961931	      4.75154651	     89.96443100	     -3.31715131	      5.30880943	     47.54444960	     74.58429281	      0.00000000	      0.00000000	     89.97091213	      2.71288197	     17.63014538	     52.00787546	     59.33783625	      0.00000000	      0.00000000
      2.83000000	      5.52987472	     -3.25215101	      4.73979624	     -0.35741599	      0.77616666	     -1.06019333	     49.67442767	     -1.81482261	     -3.57873050	      1.81089575	      0.03160609	     -7.37996705	      0.00000000	      0.00000000	     47.34224847	     -0.08248642	     -1.06520789	     95.98263252	      1.67521296	     31.42040241	      0.00000000	      0.00000000	    -26.46335771	     -2.98442844	      4.79541356	     89.96454236	     -3.28958011	      4.88109583	     47.52098509	     77.51275091	      0.00000000	      0.00000000	     89.97105216	      2.78089109	     17.51881256	     51.96625380	     60.99056519	      0.00000000	      0.00000000
      2.83500000	      5.46992966	     -3.38294087	      4.79847223	     -0.35748514	      0.77547865	     -1.06016952	     49.80751556	     -1.75054745	     -3.73586885	      1.85126944	      0.03231075	     -7.23426574	      0.00000000	      0.00000000	     47.49087877	     -0.12388120	     -0.89767853	     96.11676591	      1.67755403	     31.75536242	      0.00000000	      0.00000000	    -26.43520587	     -2.83870044	      4.76630934	     89.96473990	     -3.27820555	      5.86069314	     47.77973461	     68.49463013	      0.00000000	      0.00000000	     89.97094179	      2.71617240	     17.68320753	     52.19629229	     56.52040678	      0.00000000	      0.00000000
      2.84000000	      5.46586400	     -3.33125688	      4.78582435	     -0.35753592	      0.77491484	     -1.06010725	     49.84887053	     -1.76495641	     -3.77146347	      1.78361579	      0.03112997	     -7.42903048	      0.00000000	      0.00000000	     47.54500161	     -0.12872901	     -0.98917037	     96.19038001	      1.67883884	     31.63395180	      0.00000000	      0.00000000	    -26.48848430	     -2.90916038	      4.72845205	     89.96473099	     -3.20012453	      6.36175629	     48.15036864	     61.81079734	      0.00000000	      0.00000000	     89.97107234	      2.73091320	     17.69250179	     52.31934090	     52.67569161	      0.00000000	      0.00000000
      2.84500000	      5.40327486	     -3.37326958	      4.87639958	     -0.35755382	      0.77435202	     -1.06024084	     49.94580184	     -1.80257387	     -3.79718064	      1.77240219	      0.03093425	     -7.35404520	      0.00000000	      0.00000000	     47.68294877	     -0.04796058	     -0.85427885	     96.28948379	      1.68056853	     31.69975735	      0.00000000	      0.00000000	    -26.46888594	     -2.84714777	      4.66747661	     89.96483592	     -3.22522500	      6.40394060	     48.20573006	     61.28435662	      0.00000000	      0.00000000	     89.97108900	      2.77880870	     17.59664172	     52.33357541	     52.18715987	      0.00000000	      0.00000000
      2.85000000	      5.40304165	     -3.36336310	      4.86329430	     -0.35764971	      0.77384532	     -1.06018256	     49.99647419	     -1.78627533	     -3.77499960	      1.74138855	      0.03039296	     -7.38992303	      0.00000000	      0.00000000	     47.73651307	     -0.06519438	     -0.89447764	     96.37128499	      1.68199623	     31.70067710	      0.00000000	      0.00000000	    -26.51205473	     -2.87088321	      4.69419584	     89.96502368	     -3.18716725	      6.33086457	     48.25741418	     60.84158649	      0.00000000	      0.00000000	     89.97111209	      2.81428502	     17.53261873	     52.35520722	     51.77131493	      0.00000000	      0.00000000
      2.85500000	      5.34174424	     -3.30699875	      4.90785901	     -0.35775705	      0.77319721	     -1.06026967	     50.10243542	     -1.85743359	     -3.73599576	      1.72942836	      0.03018422	     -7.44400476	      0.00000000	      0.00000000	     47.87360922	      0.01510437	     -0.93721169	     96.47816543	      1.68386164	     31.65794436	      0.00000000	      0.00000000	    -26.49646443	     -2.92296857	      4.63945736	     89.96512222	     -3.16147087	      6.27390936	     48.31127954	     60.58274166	      0.00000000	      0.00000000	     89.97123900	      2.85047110	     17.50654873	     52.36995871	     51.40967796	      0.00000000	      0.00000000
      2.86000000	      5.28572262	     -3.31089952	      4.98224100	     -0.35778622	      0.77270118	     -1.06031443	     50.22290197	     -1.90777411	     -3.85496353	      1.75539049	      0.03063734	     -7.43840215	      0.00000000	      0.00000000	     47.99404725	      0.09315358	     -0.85006797	     96.53928541	      1.68492839	     31.74510443	      0.00000000	      0.00000000	    -26.47993106	     -2.95378274	      4.64821003	     89.96531336	     -3.24570084	      4.47796347	     47.76502325	     77.47854326	      0.00000000	      0.00000000	     89.97129428	      2.98735235	     17.40291164	     52.10737186	     56.65360995	      0.00000000	      0.00000000
      2.86500000	      5.24632897	     -3.35135889	      4.98917226	     -0.35787660	      0.77209835	     -1.06026916	     50.31232753	     -1.85788109	     -3.77303915	      1.75838080	      0.03068953	     -7.30594138	      0.00000000	      0.00000000	     48.10948731	      0.05476546	     -0.84255074	     96.64953655	      1.68685263	     31.71863522	      0.00000000	      0.00000000	    -26.48554064	     -2.90139595	      4.61780493	     89.96547253	     -3.19826617	      4.86744466	     47.91371891	     74.09953303	      0.00000000	      0.00000000	     89.97137889	      2.95291937	     17.31751398	     52.24795733	     55.67077309	      0.00000000	      0.00000000
      2.87000000	      5.18352988	     -3.33638055	      4.99433729	     -0.35791350	      0.77153032	     -1.06027817	     50.41714323	     -1.86289477	     -3.77853412	      1.73709422	      0.03031801	     -7.29238565	      0.00000000	      0.00000000	     48.23298901	      0.08227863	     -0.85288602	     96.72742976	      1.68821213	     31.70855685	      0.00000000	      0.00000000	    -26.46472716	     -2.92978190	      4.57729058	     89.96560747	     -3.15840877	      5.10534658	     48.03517845	     71.27081147	      0.00000000	      0.00000000	     89.97139255	      2.94740471	     17.31154948	     52.26265904	     54.59814712	      0.00000000	      0.00000000
      2.87500000	      5.19129419	     -3.34436825	      5.00968164	     -0.35794586	      0.77120126	     -1.06025968	     50.47049803	     -1.85924449	     -3.99588906	      1.80423002	      0.03148975	     -7.38874883	      0.00000000	      0.00000000	     48.25600615	      0.06853846	     -0.87118039	     96.78745693	      1.68925980	     31.85817041	      0.00000000	      0.00000000	    -26.53307528	     -2.90129739	      4.54784214	     89.96565890	     -3.09445096	      6.17882869	     48.53189256	     59.54995118	      0.00000000	      0.00000000	     89.97141384	      2.90966370	     17.32905337	     52.48001510	     50.20296722	      0.00000000	      0.00000000
